<?xml version="1.0" encoding="UTF-8" standalone="no"?>
<!-- Created with Inkscape (http://www.inkscape.org/) -->
<svg
   xmlns:dc="http://purl.org/dc/elements/1.1/"
   xmlns:cc="http://creativecommons.org/ns#"
   xmlns:rdf="http://www.w3.org/1999/02/22-rdf-syntax-ns#"
   xmlns:svg="http://www.w3.org/2000/svg"
   xmlns="http://www.w3.org/2000/svg"
   xmlns:xlink="http://www.w3.org/1999/xlink"
   xmlns:sodipodi="http://sodipodi.sourceforge.net/DTD/sodipodi-0.dtd"
   xmlns:inkscape="http://www.inkscape.org/namespaces/inkscape"
   width="278.62961"
   height="272.33084"
   id="svg3813"
   sodipodi:version="0.32"
   inkscape:version="0.46"
   version="1.0"
   sodipodi:docname="baroquon_Add_Money.svg"
   inkscape:output_extension="org.inkscape.output.svg.inkscape">
  <defs
     id="defs3815">
    <linearGradient
       inkscape:collect="always"
       id="linearGradient3211">
      <stop
         style="stop-color: rgb(255, 255, 255); stop-opacity: 1;"
         offset="0"
         id="stop3213" />
      <stop
         style="stop-color: rgb(255, 255, 255); stop-opacity: 0;"
         offset="1"
         id="stop3215" />
    </linearGradient>
    <linearGradient
       inkscape:collect="always"
       xlink:href="#linearGradient3211"
       id="linearGradient3253"
       gradientUnits="userSpaceOnUse"
       gradientTransform="matrix(1.50815,0,0,1.50815,-200.373,-213.844)"
       x1="252.5153"
       y1="437.46295"
       x2="282.11365"
       y2="437.46295" />
    <linearGradient
       inkscape:collect="always"
       id="linearGradient3201">
      <stop
         style="stop-color: rgb(255, 255, 255); stop-opacity: 1;"
         offset="0"
         id="stop3203" />
      <stop
         style="stop-color: rgb(255, 255, 255); stop-opacity: 0;"
         offset="1"
         id="stop3205" />
    </linearGradient>
    <radialGradient
       inkscape:collect="always"
       xlink:href="#linearGradient3201"
       id="radialGradient3251"
       gradientUnits="userSpaceOnUse"
       gradientTransform="matrix(1.50815,0,0,2.88841,-200.373,-812.31)"
       cx="291.63062"
       cy="433.58887"
       fx="291.63062"
       fy="433.58887"
       r="13.79455" />
    <linearGradient
       inkscape:collect="always"
       id="linearGradient3183">
      <stop
         style="stop-color: rgb(133, 191, 133); stop-opacity: 1;"
         offset="0"
         id="stop3185" />
      <stop
         style="stop-color: rgb(133, 191, 133); stop-opacity: 0;"
         offset="1"
         id="stop3187" />
    </linearGradient>
    <radialGradient
       inkscape:collect="always"
       xlink:href="#linearGradient3183"
       id="radialGradient3249"
       gradientUnits="userSpaceOnUse"
       gradientTransform="matrix(1.50815,0,0,4.51336,-200.373,-1516.98)"
       cx="277.76642"
       cy="432.06955"
       fx="277.76642"
       fy="432.06955"
       r="8.5" />
    <linearGradient
       inkscape:collect="always"
       id="linearGradient3168">
      <stop
         style="stop-color: rgb(133, 191, 133); stop-opacity: 1;"
         offset="0"
         id="stop3170" />
      <stop
         style="stop-color: rgb(133, 191, 133); stop-opacity: 0;"
         offset="1"
         id="stop3172" />
    </linearGradient>
    <radialGradient
       inkscape:collect="always"
       xlink:href="#linearGradient3168"
       id="radialGradient3247"
       gradientUnits="userSpaceOnUse"
       gradientTransform="matrix(1.50815,0,0,2.25831,-200.373,-542.2)"
       cx="260.14517"
       cy="434.73846"
       fx="260.14517"
       fy="434.73846"
       r="9.015625" />
    <radialGradient
       inkscape:collect="always"
       xlink:href="#linearGradient3216"
       id="radialGradient3402"
       gradientUnits="userSpaceOnUse"
       gradientTransform="matrix(1,0,0,1.02653,53.5714,-12.464)"
       cx="300.63495"
       cy="462.18982"
       fx="300.63495"
       fy="462.18982"
       r="10.97111" />
    <linearGradient
       inkscape:collect="always"
       id="linearGradient3206">
      <stop
         style="stop-color: rgb(179, 179, 179); stop-opacity: 1;"
         offset="0"
         id="stop3208" />
      <stop
         style="stop-color: rgb(179, 179, 179); stop-opacity: 0;"
         offset="1"
         id="stop3210" />
    </linearGradient>
    <radialGradient
       inkscape:collect="always"
       xlink:href="#linearGradient3206"
       id="radialGradient3405"
       gradientUnits="userSpaceOnUse"
       gradientTransform="matrix(1,0,0,1.4233,0,-161.978)"
       cx="408.53793"
       cy="375.87903"
       fx="408.53793"
       fy="375.87903"
       r="8.046875" />
    <linearGradient
       inkscape:collect="always"
       id="linearGradient3216">
      <stop
         style="stop-color: rgb(179, 179, 179); stop-opacity: 1;"
         offset="0"
         id="stop3218" />
      <stop
         style="stop-color: rgb(179, 179, 179); stop-opacity: 0;"
         offset="1"
         id="stop3220" />
    </linearGradient>
    <radialGradient
       inkscape:collect="always"
       xlink:href="#linearGradient3216"
       id="radialGradient3408"
       gradientUnits="userSpaceOnUse"
       gradientTransform="matrix(1,0,0,1.02653,0,-12.464)"
       cx="300.63495"
       cy="462.18982"
       fx="300.63495"
       fy="462.18982"
       r="10.97111" />
    <linearGradient
       inkscape:collect="always"
       id="linearGradient3186">
      <stop
         style="stop-color: rgb(204, 204, 204); stop-opacity: 1;"
         offset="0"
         id="stop3188" />
      <stop
         style="stop-color: rgb(204, 204, 204); stop-opacity: 0;"
         offset="1"
         id="stop3190" />
    </linearGradient>
    <radialGradient
       inkscape:collect="always"
       xlink:href="#linearGradient3186"
       id="radialGradient3412"
       gradientUnits="userSpaceOnUse"
       gradientTransform="matrix(1,0,0,0.569301,0,177.435)"
       cx="270.58206"
       cy="378.09262"
       fx="270.58206"
       fy="378.09262"
       r="72.84153" />
    <linearGradient
       inkscape:collect="always"
       id="linearGradient3244">
      <stop
         style="stop-color: rgb(255, 255, 255); stop-opacity: 1;"
         offset="0"
         id="stop3246" />
      <stop
         style="stop-color: rgb(255, 255, 255); stop-opacity: 0;"
         offset="1"
         id="stop3248" />
    </linearGradient>
    <linearGradient
       inkscape:collect="always"
       xlink:href="#linearGradient3244"
       id="linearGradient3415"
       gradientUnits="userSpaceOnUse"
       x1="277.7323"
       y1="425.51294"
       x2="427.34067"
       y2="425.51294" />
    <inkscape:perspective
       sodipodi:type="inkscape:persp3d"
       inkscape:vp_x="0 : 526.18109 : 1"
       inkscape:vp_y="0 : 1000 : 0"
       inkscape:vp_z="744.09448 : 526.18109 : 1"
       inkscape:persp3d-origin="372.04724 : 350.78739 : 1"
       id="perspective3821" />
  </defs>
  <sodipodi:namedview
     id="base"
     pagecolor="#ffffff"
     bordercolor="#666666"
     borderopacity="1.0"
     gridtolerance="10000"
     guidetolerance="10"
     objecttolerance="10"
     inkscape:pageopacity="0.0"
     inkscape:pageshadow="2"
     inkscape:zoom="0.35"
     inkscape:cx="500.71429"
     inkscape:cy="-360"
     inkscape:document-units="px"
     inkscape:current-layer="layer1"
     showgrid="false"
     inkscape:window-width="641"
     inkscape:window-height="710"
     inkscape:window-x="467"
     inkscape:window-y="90" />
  <metadata
     id="metadata3818">
    <rdf:RDF>
      <cc:Work
         rdf:about="">
        <dc:format>image/svg+xml</dc:format>
        <dc:type
           rdf:resource="http://purl.org/dc/dcmitype/StillImage" />
      </cc:Work>
    </rdf:RDF>
  </metadata>
  <g
     inkscape:label="Layer 1"
     inkscape:groupmode="layer"
     id="layer1"
     transform="translate(-37.033504,-10.974366)">
    <g
       id="g3239"
       transform="matrix(3.38279,-0.542897,0.542897,3.38279,-812.21,-1211.54)"
       inkscape:export-filename="/home/brandon/Desktop/list.png"
       inkscape:export-xdpi="89.997635"
       inkscape:export-ydpi="89.997635">
      <path
         id="text2383"
         d="M 238.59148,419.06381 L 237.88442,430.07374 C 235.96526,428.76063 234.14711,426.74046 234.14711,424.21524 C 234.14711,421.58902 236.16727,419.46784 238.59148,419.06381 M 240.30863,460.17427 L 241.11669,448.96232 C 242.63183,450.17442 244.65199,451.99258 244.65199,454.11375 C 244.65199,457.043 243.13686,459.3662 240.30863,460.17427 M 259.50023,454.21477 C 259.50023,445.42703 254.4498,440.57861 247.98526,436.33626 C 247.98526,436.33626 244.24796,433.81105 242.22779,432.69996 L 243.13686,419.36684 C 245.56106,420.07389 248.38931,421.69004 250.10645,423.60919 L 258.49015,416.13457 C 255.25788,411.7912 249.29838,408.2559 244.04594,407.0438 L 244.44998,401.38733 L 239.90459,400.9833 L 239.50056,406.53875 C 228.49064,406.43775 219.39987,413.10432 219.39987,424.61928 C 219.39987,433.40701 224.95534,438.45745 231.52089,442.8008 C 231.52089,442.8008 234.95517,445.22502 236.77332,446.2351 L 235.76324,460.07325 C 232.93501,459.26519 229.70274,457.34602 227.27854,455.52787 L 220.61197,466.03276 C 224.34929,469.26502 230.00577,472.09326 234.85417,472.90133 L 234.45014,478.75983 L 238.99551,479.16386 L 239.39954,473.20436 C 250.10643,472.59831 259.50023,465.62871 259.50023,454.21477"
         style="font-size:66.97509766px;font-style:normal;font-variant:normal;font-weight:900;font-stretch:normal;text-align:start;line-height:125%;text-anchor:start;fill:#008000;fill-opacity:1;stroke:none;stroke-width:1px;stroke-linecap:butt;stroke-linejoin:miter;stroke-opacity:1;font-family:Delicious Heavy" />
      <path
         id="text2387"
         d="M 224.34295,451.82529 L 224.34295,439.90628 L 209.19168,439.90628 L 209.19168,425.15904 L 196.26259,425.15904 L 196.26259,439.90628 L 181.21232,439.90628 L 181.21232,451.82529 L 196.26259,451.82529 L 196.26259,466.67352 L 209.19168,466.67352 L 209.19168,451.82529 L 224.34295,451.82529"
         style="font-size:66.97509766px;font-style:normal;font-variant:normal;font-weight:900;font-stretch:normal;text-align:start;line-height:125%;text-anchor:start;fill:#008000;fill-opacity:1;stroke:none;stroke-width:1px;stroke-linecap:butt;stroke-linejoin:miter;stroke-opacity:1;font-family:Delicious Heavy" />
      <path
         sodipodi:nodetypes="cccccccsccc"
         id="path2393"
         d="M 197.02483,425.94203 L 197.02483,440.6465 L 181.99045,440.6465 L 181.99045,451.0545 L 197.03249,451.0545 L 197.03249,465.90036 L 204.04715,465.90036 C 200.19832,461.89647 200.84233,456.39925 200.84233,450.34755 C 200.84233,441.92818 202.41713,432.33959 209.18429,428.58129 L 209.18429,425.94203 L 197.02483,425.94203 z"
         style="font-size:66.97509766px;font-style:normal;font-variant:normal;font-weight:900;font-stretch:normal;text-align:start;line-height:125%;text-anchor:start;opacity:0.9;fill:url(#radialGradient3247);fill-opacity:1;stroke:none;stroke-width:1px;stroke-linecap:butt;stroke-linejoin:miter;stroke-opacity:1;font-family:Delicious Heavy" />
      <path
         sodipodi:nodetypes="ccscccccccccccccc"
         id="path3176"
         d="M 240.66693,401.76449 L 240.24276,407.27867 C 229.23286,407.17767 220.16551,413.10744 220.16551,424.6224 C 220.16551,432.68118 224.83687,436.97293 230.67543,440.9764 C 220.17038,417.72725 237.29985,411.02003 245.80407,408.03274 C 245.10537,407.81135 244.4196,407.57911 243.73036,407.42006 L 244.1074,402.14153 L 240.66693,401.76449 z M 227.65913,457.04763 L 221.95644,465.86089 C 225.69377,469.09314 230.77565,471.32107 235.62405,472.12914 L 235.10563,478.11461 L 238.31045,478.49165 L 238.73461,472.64756 C 239.57948,472.59974 240.40412,472.48437 241.23249,472.36479 C 238.08532,469.57729 235.41082,465.25256 233.55035,459.87542 C 231.45349,459.15698 229.28242,458.2651 227.65913,457.04763 z"
         style="font-size:66.97509766px;font-style:normal;font-variant:normal;font-weight:900;font-stretch:normal;text-align:start;line-height:125%;text-anchor:start;fill:url(#radialGradient3249);fill-opacity:1;stroke:none;stroke-width:1px;stroke-linecap:butt;stroke-linejoin:miter;stroke-opacity:1;font-family:Delicious Heavy" />
      <path
         style="font-size:66.97509766px;font-style:normal;font-variant:normal;font-weight:900;font-stretch:normal;text-align:start;line-height:125%;text-anchor:start;fill:none;fill-opacity:1;stroke:url(#radialGradient3251);stroke-width:1.50814998px;stroke-linecap:butt;stroke-linejoin:miter;stroke-opacity:1;font-family:Delicious Heavy"
         d="M 238.59148,419.06381 L 237.88442,430.07374 C 235.96526,428.76063 234.14711,426.74046 234.14711,424.21524 C 234.14711,421.58902 236.16727,419.46784 238.59148,419.06381 M 240.30863,460.17427 L 241.11669,448.96232 C 242.63183,450.17442 244.65199,451.99258 244.65199,454.11375 C 244.65199,457.043 243.13686,459.3662 240.30863,460.17427 M 259.50023,454.21477 C 259.50023,445.42703 254.4498,440.57861 247.98526,436.33626 C 247.98526,436.33626 244.24796,433.81105 242.22779,432.69996 L 243.13686,419.36684 C 245.56106,420.07389 248.38931,421.69004 250.10645,423.60919 L 258.49015,416.13457 C 255.25788,411.7912 249.29838,408.2559 244.04594,407.0438 L 244.44998,401.38733 L 239.90459,400.9833 L 239.50056,406.53875 C 228.49064,406.43775 219.39987,413.10432 219.39987,424.61928 C 219.39987,433.40701 224.95534,438.45745 231.52089,442.8008 C 231.52089,442.8008 234.95517,445.22502 236.77332,446.2351 L 235.76324,460.07325 C 232.93501,459.26519 229.70274,457.34602 227.27854,455.52787 L 220.61197,466.03276 C 224.34929,469.26502 230.00577,472.09326 234.85417,472.90133 L 234.45014,478.75983 L 238.99551,479.16386 L 239.39954,473.20436 C 250.10643,472.59831 259.50023,465.62871 259.50023,454.21477"
         id="path3191" />
      <path
         style="font-size:66.97509766px;font-style:normal;font-variant:normal;font-weight:900;font-stretch:normal;text-align:start;line-height:125%;text-anchor:start;fill:none;fill-opacity:1;stroke:url(#linearGradient3253);stroke-width:1.50814998px;stroke-linecap:butt;stroke-linejoin:miter;stroke-opacity:1;font-family:Delicious Heavy"
         d="M 224.34295,451.82529 L 224.34295,439.90628 L 209.19168,439.90628 L 209.19168,425.15904 L 196.26259,425.15904 L 196.26259,439.90628 L 181.21232,439.90628 L 181.21232,451.82529 L 196.26259,451.82529 L 196.26259,466.67352 L 209.19168,466.67352 L 209.19168,451.82529 L 224.34295,451.82529"
         id="path3209" />
    </g>
  </g>
</svg>
